<?xml version="1.0" encoding="UTF-8" standalone="no"?>
<svg
   width="24"
   height="24"
   version="1.1"
   id="svg2"
   sodipodi:docname="Script.svg"
   inkscape:version="1.4-rc1 (61ec3f2, 2024-09-26)"
   xmlns:inkscape="http://www.inkscape.org/namespaces/inkscape"
   xmlns:sodipodi="http://sodipodi.sourceforge.net/DTD/sodipodi-0.dtd"
   xmlns="http://www.w3.org/2000/svg"
   xmlns:svg="http://www.w3.org/2000/svg">
  <defs
     id="defs2" />
  <sodipodi:namedview
     id="namedview2"
     pagecolor="#505050"
     bordercolor="#ffffff"
     borderopacity="1"
     inkscape:showpageshadow="0"
     inkscape:pageopacity="0"
     inkscape:pagecheckerboard="1"
     inkscape:deskcolor="#505050"
     inkscape:zoom="14.945313"
     inkscape:cx="37.469941"
     inkscape:cy="23.6529"
     inkscape:window-width="3840"
     inkscape:window-height="2131"
     inkscape:window-x="1341"
     inkscape:window-y="-9"
     inkscape:window-maximized="1"
     inkscape:current-layer="svg2" />
  <path
     fill="#e0e0e0"
     d="M 8.8571423,1 A 3.1428571,3.1428571 0 0 0 5.7142857,4.1428571 V 15.142858 H 0.99999995 v 4.714284 A 3.1428571,3.1428571 0 0 0 4.1428571,23 H 15.142857 a 3.1428571,3.1428571 0 0 0 3.142857,-3.142858 V 7.2857142 H 23 V 4.1428571 A 3.1428571,3.1428571 0 0 0 19.857142,1 Z"
     id="path1"
     style="stroke-width:1.57142" />
  <path
     fill-opacity="0.2"
     d="M 8.8571423,1 A 3.1428571,3.1428571 0 0 0 5.7142857,4.1428571 V 15.142858 H 0.99999995 v 4.714284 a 3.1428571,3.1428571 0 1 0 6.28571415,0 V 4.1428571 a 1.5714287,1.5714287 0 0 1 3.1428569,0 v 4.7142852 h 7.857143 V 7.2857142 H 12 V 4.1428571 A 3.1428571,3.1428571 0 0 0 8.8571423,1 Z M 2.5714285,16.714285 h 3.1428572 v 3.142857 a 1.5714286,1.5714286 0 0 1 -3.1428572,0 z"
     id="path2"
     style="stroke-width:1.57142" />
</svg>
