<?xml version="1.0" encoding="UTF-8" standalone="no"?>
<svg
   width="24"
   height="24"
   version="1.1"
   id="svg3"
   sodipodi:docname="ScriptCreate.svg"
   inkscape:version="1.4-rc1 (61ec3f2, 2024-09-26)"
   xmlns:inkscape="http://www.inkscape.org/namespaces/inkscape"
   xmlns:sodipodi="http://sodipodi.sourceforge.net/DTD/sodipodi-0.dtd"
   xmlns="http://www.w3.org/2000/svg"
   xmlns:svg="http://www.w3.org/2000/svg">
  <defs
     id="defs3" />
  <sodipodi:namedview
     id="namedview3"
     pagecolor="#505050"
     bordercolor="#ffffff"
     borderopacity="1"
     inkscape:showpageshadow="0"
     inkscape:pageopacity="0"
     inkscape:pagecheckerboard="1"
     inkscape:deskcolor="#505050"
     inkscape:zoom="21.135864"
     inkscape:cx="23.088718"
     inkscape:cy="10.19594"
     inkscape:window-width="3840"
     inkscape:window-height="2131"
     inkscape:window-x="1341"
     inkscape:window-y="-9"
     inkscape:window-maximized="1"
     inkscape:current-layer="svg3" />
  <path
     fill="#e0e0e0"
     d="M 8.8571431,1 A 3.1428572,3.1428572 0 0 0 5.7142857,4.1428572 V 15.142857 H 1 v 4.714286 A 3.1428572,3.1428572 0 0 0 4.1428572,23 H 15.142857 V 21.428572 H 12 v -6.285715 h 3.142857 V 12 h 3.142858 V 7.2857143 H 23 V 4.1428572 A 3.1428572,3.1428572 0 0 0 19.857143,1 Z"
     id="path1"
     style="stroke-width:1.57143" />
  <path
     fill-opacity="0.2"
     d="M 8.8571431,1 A 3.1428572,3.1428572 0 0 0 5.7142857,4.1428572 V 15.142857 H 1 v 4.714286 a 3.1428572,3.1428572 0 1 0 6.2857143,0 V 4.1428572 a 1.5714289,1.5714289 0 0 1 3.1428577,0 v 4.7142859 h 7.857143 V 7.2857143 H 12 V 4.1428572 A 3.1428572,3.1428572 0 0 0 8.8571431,1 Z M 2.5714285,16.714285 h 3.1428572 v 3.142858 a 1.5714286,1.5714286 0 0 1 -3.1428572,0 z"
     id="path2"
     style="stroke-width:1.57143" />
  <path
     fill="#5fff97"
     d="M 19.857143,19.857143 H 23 v -3.142858 h -3.142857 v -3.142857 h -3.142858 v 3.142857 h -3.142857 v 3.142858 h 3.142857 V 23 h 3.142858 z"
     id="path3"
     style="stroke-width:1.57143" />
</svg>
